/* XPM */
static char * neuron_dat_xpm[] = {
/* width height num_colors chars_per_pixel */
"16 16 5 1",
/* colors */
" 	s None	c None",
".	c LightSlateGray",
"X	c PaleGoldenrod",
"o	c red",
"O	c black",
/* pixels */
"                ",
"............... ",
".XoXXoXXXXXXXX.O",
".XoXXXoXXXoooX.O",
".XXooXoXXoXXXX.O",
".XXXXoXooXXXXX.O",
".XXXXXoXXXOOXX.O",
".XXXXooXXXOXOX.O",
".XXXooooXXOXOX.O",
".XXooooooXOXOX.O",
".XXooooooXOOXX.O",
".XXooooooXXXXX.O",
".XXXooooXXXXXX.O",
".XXXXXXXXXXXXX.O",
"...............O",
" OOOOOOOOOOOOOOO"};
