/* XPM */
static char * neuron_compress_xpm[] = {
/* width height num_colors chars_per_pixel */
"16 16 5 1",
/* colors */
" 	s None	c None",
".	c LightSlateGray",
"X	c PaleGoldenrod",
"o	c black",
"O	c red",
/* pixels */
"                ",
"............... ",
".XXXXXXXXXXXXX.o",
".XOXXXOXXXOXXX.o",
".XXOOXOXXOXXOX.o",
".XXXXOXXOOOOXX.o",
".XXXXXOOXXXXXX.o",
".XXXoXXOXoXXXX.o",
".XoooOOOOooooX.o",
".XoXoOOOOoXoXX.o",
".XoXOOOOOOXoXX.o",
".XoXXOOOOXXoXX.o",
".XooooooooooXX.o",
".XXXXXXXXXXXXX.o",
"...............o",
" ooooooooooooooo"};
