/* XPM */
static char * pov_xpm[] = {
/* width height num_colors chars_per_pixel */
"16 16 12 1",
/* colors */
" 	s None	c None",
".	c LightSlateGray",
"X	c black",
"o	c LightGray",
"O	c gray",
"+	c blue",
"@	c PaleGoldenrod",
"#	c SkyBlue",
"$	c red",
"%	c orange",
"&	c ForestGreen",
"*	c chartreuse",
/* pixels */
"                ",
"............XoO ",
".+++++@@@@@@XooO",
".+###+@@@$@@XXXX",
".+###+@$$%$$@@.X",
".+###+@$%%%$@@.X",
".+++++$%%%%%$@.X",
".@@@@@@$%%%$@@.X",
".@@@@&@$$%$$@@.X",
".@@@&*&@@$@@@@.X",
".@@&***&@@@@@@.X",
".@&*****&@@@@@.X",
".&&&&&&&&&@@@@.X",
".@@@@@@@@@@@@@.X",
"...............X",
" XXXXXXXXXXXXXXX"};
