/* XPM */
static char * vid_xpm[] = {
/* width height num_colors chars_per_pixel */
"16 16 6 1",
/* colors */
" 	s None	c None",
".	c DimGray",
"X	c red",
"o	c DeepSkyBlue",
"O	c black",
"+	c MediumSpringGreen",
/* pixels */
"                ",
"............... ",
"........XXoooo.O",
"..++....XXo..o.O",
"..++......oo.o.O",
".......oo..oo..O",
"....ooo.oo.....O",
"...o.....oo....O",
"..o.......o....O",
"..oo......o....O",
"...o......o....O",
"...oo.....o....O",
"....oooooo.....O",
"...............O",
"...............O",
" OOOOOOOOOOOOOOO"};
