/* XPM */
static char * video_xpm[] = {
"16 16 6 1",
" 	s None	c None",
".	c grey51",
"X	c white",
"o	c grey76",
"O	c grey4",
"+	c red1",
"                ",
"   .........    ",
"   .XXXXXXXo.   ",
"   .XXXXXXXoX.  ",
"   .XXXXXXXOOOO ",
".  .XXXXXXXXXoO ",
"..o.......XX..O ",
".OOoooOoo.O..OO ",
"O OOOOooo.OXoOO ",
"  .oooooo.OO.OO ",
"  .+ooOoO.OXOOO ",
"  OOOOOOOOOXXXO ",
"   .XXXXXXXXXoO ",
"   .XXXXXXXXXoO ",
"   .ooooooooooO ",
"   OOOOOOOOOOOO "};
