/* XPM */
static char * neuronc_32_xpm[] = {
/**/
"32 26 8 1",
/*À	Øì@ronc.xpm*/
" 	c SlateGray",
".	s None	c None",
"X	c LightGoldenrod",
"o	c black",
"O	c red",
"+	c MediumBlue",
"@	c DeepSkyBlue",
"#	c DarkOrange",
/*À	Øì@ronc.xpm*/
"                               .",
" XXXXXXXXXXXXXXXXXXXXXXXXXXXXX o",
" XXXXXXXXXXXOOXXXOOXXXOOOXXXXX o",
" XXXXXXXXXXXXOOXXOXXXOXXOXXXXX o",
" XXXXXXXXXXXXOXOXOXXXOXXXXXXXX o",
" XXXXXXXXXXXXOXOXOXXXOXXXXXXXX o",
" XXXXXXXXXXXXOXXOOXXXOXXXXXXXX o",
" XXXXXX++XXXXOXXOOXXXOXXOXXXXX o",
" XXXXX++++XXOOXXXOOXXXOOOXXXXX o",
" XXXXX+@+++XXXXXXXXXXXXXXXXXXX o",
" XXXXXX+++XXXXXXXXXXXXX+XXXXXX o",
" XXXXXXX+#XXXXXXXXXXXX+++XXXXX o",
" XXXXXXXX#XXXXXXXXXXX+@+++XXXX o",
" XXXXXXXXX#XXXXXXXXXXX+++XXXXX o",
" XXXXXXXXX#XXXXXXXXXXX#+XXXXXX o",
" XXXXXXXXXX#XXXXXXXX##XXXXXXXX o",
" XXXXXXXXXXX#XXXX##XXXXXXXXXXX o",
" XXXXXXXXXXX#+++#XXXXXXXXXXXXX o",
" XXXXXXXXXXX+++++XXXXXXXXXXXXX o",
" XXXXXXXXXX+@@++++XXXXXXXXXXXX o",
" XXXXXXXXXX+@@++++XXXXXXXXXXXX o",
" XXXXXXXXXX+++++++XXXXXXXXXXXX o",
" XXXXXXXXXXX+++++XXXXXXXXXXXXX o",
" XXXXXXXXXXXX+++XXXXXXXXXXXXXX o",
"                               o",
".ooooooooooooooooooooooooooooooo"};
