/* XPM */
static char * neuron_m_xpm[] = {
/* width height num_colors chars_per_pixel */
"32 24 3 1",
/* colors */
" 	s None	c None",
".	c red",
"X	c black",
/* pixels */
"                                ",
"                      ..        ",
"         .         ...          ",
" ..       ..      .         ... ",
"   ....     .    ..   .......   ",
"       ...   .  .   ..          ",
"          .  .  .  .            ",
"          .. . .  .             ",
"            . .. .              ",
"            .. ..               ",
"             ....               ",
"              ..     XX       XX",
"              ..      XX     XX ",
"             ....     XX     XX ",
"           ........   X X   X X ",
"          .........   X X   X X ",
"          .........   X  X X  X ",
"          ..........  X  X X  X ",
"          ..........  X   X   X ",
"          .......... XXX  X  XXX",
"          .........             ",
"           ........             ",
"           .......              ",
"                                "};
