/* XPM */
static char * neuronc_pov_32_xpm[] = {
/**/
"32 26 10 1",
/*À	Øì@ronc.xpm*/
" 	c SlateGray",
".	s None	c None",
"X	c cyan",
"o	c black",
"O	c red",
"+	c blue",
"@	c LightGray",
"#	c chocolate",
"$	c chartreuse",
"%	c LightSkyBlue",
/*À	Øì@ronc.xpm*/
"                               .",
" XXXXXXXXXXXXXXXXXXXXXXXXXXXXX o",
" XXXXXXXXXXXOOXXXOOXXXOOOXXXXX o",
" XXXXXXXXXXXXOOXXOXXXOXXOXXXXX o",
" XXXXXXXXXXXXOXOXOXXXOXXXXXXXX o",
" X+++XXXXXXXXOXOXOXXXOXXXXXXXX o",
" X+++XXXXXXXXOXXOOXXXOXXXXXXXX o",
" X+++oXXXXXXXOXXOOXXoOXXOXooXX o",
" o@#@@oXXXXXOOXXXOOo@oOOOX@@oX o",
" o@#@@ooXXXXoo++Xo@@@ooooo@@@o o",
" @@@#@@@oooo@++++@@@@@@@@@@@@@ o",
" @@@#@@@@@@@##++@@@@@@@@@@@@@@ o",
" oooo#ooooo#oooooooooooooooooo o",
" $$$+++$###$$$$$$$$$$$$$$$$$$$ o",
" $$+++++#$$$$OOO$$$OO$$$O$$$O$ o",
" $+++++++$$$$O$$O$O$$O$$O$$$O$ o",
" $++%%+++$$$$O$$O$O$$O$$O$$$O$ o",
" $++%++++$$$$OOO$$O$$O$$$O$O$$ o",
" $$+++++$$$$$O$$$$O$$O$$$O$O$$ o",
" $$$+++$$$$$$O$$$$O$$O$$$OOO$$ o",
" $$$$$$$$$$$$O$$$$O$$O$$$$O$$$ o",
" $$$$$$$$$$$$O$$$$$OO$$$$$O$$$ o",
" $$$$$$$$$$$$$$$$$$$$$$$$$$$$$ o",
" $$$$$$$$$$$$$$$$$$$$$$$$$$$$$ o",
"                               o",
".ooooooooooooooooooooooooooooooo"};
