/* XPM */
static char * neuron_fr_xpm[] = {
/* width height num_colors chars_per_pixel */
"32 24 3 1",
/* colors */
" 	s None	c None",
".	c red",
"X	c blue",
/* pixels */
"                                ",
"                      ..        ",
"         .         ...          ",
" ..       ..      .         ... ",
"   ....     .    ..   .......   ",
"       ...   .  .   ..          ",
"          .  .  .  .            ",
"          .. . .  .             ",
"            . .. .              ",
" XXXXXX     .. ..               ",
"  X   XX     ....               ",
"  X    X      ..                ",
"  X   XX      ..                ",
"  XXXXX      ....               ",
"  X  X     ........             ",
"  X   X   .........             ",
"  X    X  .........             ",
" XXX   XX ..........            ",
"          ..........            ",
"          ..........            ",
"          .........             ",
"           ........             ",
"           .......              ",
"                                "};
