/* XPM */
static char * neuronc_plot_32_xpm[] = {
/**/
"32 26 8 1",
/*À	Øì@ronc.xpm*/
" 	c SlateGray",
".	s None	c None",
"X	c LemonChiffon",
"o	c black",
"O	c red",
"+	c blue",
"@	c DeepPink",
"#	c LimeGreen",
/*À	Øì@ronc.xpm*/
"                               .",
" XXXXXXXXXXXXXXXXXXXXXXXXXXXXX o",
" XXXXXXXXXXXOOXXXOOXXXOOOXXXXX o",
" XXXXXXXXXXXXOOXXOXXXOXXOXXXXX o",
" XXXXXXXXXXXXOXOXOXXXOXXXXXXXX o",
" XXXXXXXXXXXXOXOXOXXXOXXXXXXXX o",
" XXXXXXXXXXXXOXXOOXXXOXXXXXXXX o",
" XX+XXXXXXXXXOXXOOXXXOXXOXXXXX o",
" XX+XXXX@XXXOOXXXOOXXXOOOXXXXX o",
" XX+XX@@@@XXXXXXXXXXXXXXXXXXXX o",
" XX+@@XXX@@XXXXXXXXXXXXXXXXXXX o",
" XX+XXXXXX@XXXXXXXXXXXX@@XXXXX o",
" XX+XXXXXXX@XXXXX@@@@@@@XXXXXX o",
" XX+XXXXXXXX@XXX@@XXXXXXXXXXXX o",
" XX+XXXXXXXXX@@@@XXXXXXXXXXXXX o",
" XX+XXXXXXXXXXXXXXXX##XXXXXXXX o",
" XX+XXXXXX###XXXXXX#XX###XXXXX o",
" XX+XXXX##XX##XXXX#XXXXXXXXXXX o",
" XX+XXXX#XXXX######XXXXXXXXXXX o",
" XX+XXX#XXXXXXXXXXXXXXXXXXXXXX o",
" XX+###XXXXXXXXXXXXXXXXXXXXXXX o",
" XX+XXXXXXXXXXXXXXXXXXXXXXXXXX o",
" XX++++++++++++++++++++++XXXXX o",
" XXXXXXXXXXXXXXXXXXXXXXXXXXXXX o",
"                               o",
".ooooooooooooooooooooooooooooooo"};
