/* XPM */
static char * neuron_fs_xpm[] = {
/* width height num_colors chars_per_pixel */
"32 24 3 1",
/* colors */
" 	s None	c None",
".	c red",
"X	c blue",
/* pixels */
"                                ",
"                      ..        ",
"         .         ...          ",
" ..       ..      .         ... ",
"   ....     .    ..   .......   ",
"       ...   .  .   ..          ",
"          .  .  .  .            ",
"          .. . .  .             ",
"   XXX X    . .. .              ",
"  X   XX    .. ..               ",
"  X    X     ....               ",
"   XX         ..                ",
"    XXX       ..                ",
"      XX     ....               ",
"  X    X   ........             ",
"  XX  XX  .........             ",
"  X XXX   .........             ",
"          ..........            ",
"          ..........            ",
"          ..........            ",
"          .........             ",
"           ........             ",
"           .......              ",
"                                "};
