/* XPM */
static char * ps2ai_xpm[] = {
/**/
"32 20 9 1",
/**/
" 	s None	c None",
".	c black",
"X	c lemon chiffon",
"o	c tan",
"O	c gray50",
"+	c LightSlateGray",
"@	c OrangeRed",
"#	c tomato",
"$	c red",
/**/
"                                ",
"                                ",
"..........         .........    ",
".XXXXXXXXXo        .XXXXXXXXo   ",
".XXXXXXXXXoo       .XXXXXXXXoo  ",
".XXXXXXXXXooo      .XXXXXXXXooo ",
".XXXXXXXXXoooO     .XXXXXXXXooo+",
".X@@@@XXX@@XXO     .XXXXXXXXXXX+",
".XX@XX@X@X@@XO     .XXX@@XXX#@#+",
".XX@XX@X@XXXXO   . .XXX@@XXXX@X+",
".XX@@@XXX@@XXO......XX@X@@XXX@X+",
".XX@XXXXXX@@XO   . .XX@@@@XXX@X+",
".XX@XXXX#XX@XO     .XX@XX@XXX@X+",
".X@@@XXXX@@XXO     .X@@XX@@X@@$+",
".XXXXXXXXXXXXO     .XXXXXXXXXXX+",
".XXXXXXXXXXXXO     .XXXXXXXXXXX+",
".............O     ............+",
" +++++++++++++      ++++++++++++",
"                                ",
"                                "};
