/* XPM */
static char * xfig_32_xpm[] = {
/**/
"32 32 8 1 0 0",
/**/
" 	s None	c None",
".	c black",
"X	c green",
"o	c peru",
"O	c sienna",
"+	c gainsboro",
"@	c sea green",
"#	c lime green",
/**/
"                                ",
"                                ",
"                                ",
"     .... ...  ...           .X.",
"     .     .  .             .XXX",
"     ...   .  . ..         XXXXX",
"     .     .  .  .       ..XXXXX",
"     .    ...  ..        XXXXXXX",
"                         XXXXXXX",
"    o..                 .XXXX.XX",
"   oooo..             ..OXXXXXXX",
"   ..OOOoooo....oooooooX.XXX.XXX",
"     ..OOOOooooooOOOO.OXXXX.XXXX",
"          ....+.....XXXX..XX...X",
"            .@.  @@@@XXXXXX.XXXX",
"           .#@.  @@XX.XXX.XXXXXX",
"           ###  .@@X.XXXX.XXX.XX",
"          .##  .@X@XXXXXX.XXXX.X",
"         .@##  @@XXX...XXXXXXXXX",
"        .@###  ....  .XXX.XXXXXX",
"       .@@###.       XXXXXXXXXXX",
"       @@#####.    XXXXXXXXXXXXX",
"      .@@#####.    XXXXX.XXXXXXX",
"     @@@@######.  .XXXXXX.  .XXX",
"    .@@..######. ..XXXXXX. .XXXX",
"   .@..@#######. .XXXXXXX. XXXXX",
"   .@@@##.######..XXXXXXX  XXXXX",
"   @@..#########..XXXXX.   XXXXX",
"  .@.@..########. .....    XXXXX",
" .@@@@.##.######@          XXXXX",
" @@@@@@###.######          XXXXX",
"                                "};
