/* XPM */
static char * app_neuronc_xpm[] = {
/**/
"48 48 9 1",
/*figs/app_neuronc.xpm*/
" 	s None	c None",
".	c black",
"X	c LightGoldenrod",
"o	c OrangeRed",
"O	c LimeGreen",
"+	c green",
"@	c MediumBlue",
"#	c DeepSkyBlue",
"$	c gray",
/*figs/app_neuronc.xpm*/
"                       .                        ",
"                      .X.                       ",
"                     .XXX.                      ",
"                    .XXXXX.                     ",
"                   .XXXXXXX.                    ",
"                  .XXXXXXXXX.                   ",
"                 .XXXXXXXXXXX.                  ",
"                .XXXXXXXXXXXXX.                 ",
"               .XXXXXXXXXXXXXXX.                ",
"              .XXXXXXXXXXXXXXXXX.               ",
"             .XXXoooXoooXXoooooXX.              ",
"            .XXXXXooXXoXXooXXXoXXX.             ",
"           .XXXXXXoXoXoXXoXXXXXXXXX.            ",
"          .XXXXXXXoXoXoXXoXXXXXXXXXX.           ",
"         .XXXXXXXXoXXooXXoXXXXXXXXXXX.          ",
"        .XXXOXXXXXoXXooXXooXXXoXXXXXXX.         ",
"       .XXXXOOXXXoooXXooXXoooooXXXXXXXX.        ",
"      .XXXXXXOXXXXXXXXXXXXXXXXXXXXXXXXXX.       ",
"     .XXXXXXXOOXXXXXXXXXXXXXXXXXXOXXXXXXX.      ",
"    .XXXXXXXXXOOXXXXXXXXXXXXXXXXXOXXXXXXXX.     ",
"   .XXXXXXXXXXXOOXXXXXXXOXXXXXXXXOXXXXXXXXX.    ",
"  .XXXXXXXXXXXXOOXXXXXXOXXXXXXXXXOXXXXXXXXXX.   ",
" .XXXXXXXXXXXXXXOOXXXXXOXXXXXXXXXOXXXXXXOXXXX.  ",
".XXXOOOOOOOOOOOOOOXXXXOXXXXXXXXXXOXXXXXOOXXXXX. ",
" .XXXXXOOOOOOOOOOOOXXOXXXXXXXXXXXOXXXXOOXXXXXXX.",
"  .XXXXXXXXXXXXXX+OOXOXXXXOXXXXXXOXXXOOXXXXXXX. ",
"   .XXXXXXXXXXXXX+OOOXXXXXXOXXXXXOXXOOXXXXXXX.  ",
"    .XXXXXXXXXXXXX+OOXXXXXXOXXXXXOXOOXXXXXXX.   ",
"     .XXXXXXXXXXXXX+OXXXXXXXOXXXXOOOXXXXXXX.    ",
"      .XXXXXXXXXXXX+OOXXXXXXOXXXOOOXXXXXXX.     ",
"       .XXXXXXOOOOOOOOXXXXXXXOXOOOXXXXXXX.      ",
"        .XXXXXOOOOOO+OOXXXXXXOOOOOOOOXXX.       ",
"         .XXXXXXXXXX+OOX@XXXOOOOXXXXXXX.        ",
"          .XXXXXXXXX+OO@@@@OOOXXXXXXXX.         ",
"           .XXXXXXXXX@@@@@@@OXXXXXXXX.          ",
"            .XXXXXXXX@#@@@@@$XXXXXXX.           ",
"             .XXXXXX@@##@@@@@$XXXXX.            ",
"              .XXXXXX@@@@@@@$$XXXX.             ",
"               .XXXXX@@@@@@@$$XXX.              ",
"                .XXXXX@@@@@$$XXX.               ",
"                 .XXXXXX@$$$XXX.                ",
"                  .XXXXXXXXXXX.                 ",
"                   .XXXXXXXXX.                  ",
"                    .XXXXXXX.                   ",
"                     .XXXXX.                    ",
"                      .XXX.                     ",
"                       .X.                      ",
"                        .                       "};
