/* XPM */
static char * a[[+

app_od_xpm[] = {
"48 48 4 1",
" 	s None	c None",
".	c black",
"X	c wheat",
"o	c OrangeRed",
"                       .                        ",
"                      .X.                       ",
"                     .XXX.                      ",
"                    .XXXXX.                     ",
"                   .XXXXXXX.                    ",
"                  .XXXXXXXXX.                   ",
"                 .XXXXXXXXXXX.                  ",
"                .XXXXXXXXXXXXX.                 ",
"               .XXXXXXXXXXXXXXX.                ",
"              .XXXXXXXXXXXXXXXXX.               ",
"             .XXXXXXXXXXXXXXXXXXX.              ",
"            .XXoooXoooXXXXXXXXXXXX.             ",
"           .XXXXoXXXoXXXXXXXXXXXXXX.            ",
"          .XXXXXoXXXoXXXooXooXooXXXX.           ",
"         .XXXXXXoooooXXoXoXXoXoXXXXXX.          ",
"        .XXXXXXXoXXXoXXooXXXXoXXXXXXXX.         ",
"       .XXXXXXXXoXXXoXXoXXXXoXoXXXXXXXX.        ",
"      .XXXXXXXXoooXoooXXooXooXooXXXXXXXX.       ",
"     .XXXXXXXXXXXXXXXXXXXXXXXXXXXXXXXXXXX.      ",
"    .XXoooooXXXXXXXXXXXoXXXXXXXXXXXXXooXXX.     ",
"   .XXXXoXXooXXXXXXXXXXXXXXXXXXXXXXXXXoXXXX.    ",
"  .XXXXXoXXXoXXooXXooXooXoooXooXXooXXXoXXXXX.   ",
" .XXXXXXoXXXoXoXoXoXXXXoXoXXoXXoXXXoXXoXXXXXX.  ",
".XXXXXXXoXXXoXooXXoXXXXoXoXXoXXoXXooXXoXXXXXXX. ",
" .XXXXXXoXXooXoXXXoXXXXoXoXXoXXoXoXoXXoXXXXXXXX.",
"  .XXXXoooooXXXooXXooXXoXooXooXoooooXoooXXXXXX. ",
"   .XXXXXXXXXXXXXXXXXXXXXXXXXXXXXXXXXXXXXXXXX.  ",
"    .XXXXXXXXXXXXXXXXXXXXXXXXXXXXXXXXXXXXXXX.   ",
"     .XXXXXXXXooooXXXXXXXXXXXXXXooXXXXXXXXX.    ",
"      .XXXXXXooXXooXXXXXXoXXXXXXXoXXXXXXXX.     ",
"       .XXXXXoXXXXoXXooXoooXooXXXoXXXXXXX.      ",
"        .XXXXoXXXXoXoXXXXoXXXXoXXoXXXXXX.       ",
"         .XXXoXXXXoXoXXXXoXXXooXXoXXXXX.        ",
"          .XXooXXooXoXXXXoXXoXoXXoXXXX.         ",
"           .XXooooXXXooXXXoooooXoooXX.          ",
"            .XXXXXXXXXXXXXXXXXXXXXXX.           ",
"             .XXXXXXXXXXXXXXXXXXXXX.            ",
"              .XXXXXXXXXXXXXXXXXXX.             ",
"               .XXXXXXXXXXXXXXXXX.              ",
"                .XXXXXXXXXXXXXXX.               ",
"                 .XXXXXXXXXXXXX.                ",
"                  .XXXXXXXXXXX.                 ",
"                   .XXXXXXXXX.                  ",
"                    .XXXXXXX.                   ",
"                     .XXXXX.                    ",
"                      .XXX.                     ",
"                       .X.                      ",
"                        .                       "};
