/* XPM */
static char * app_pov_xpm[] = {
"48 48 17 1",
" 	s None	c None",
".	c black",
"X	c cyan",
"o	c LightGray",
"O	c DarkGray",
"+	c ForestGreen",
"@	c LimeGreen",
"#	c red",
"$	c PaleGreen",
"%	c MediumBlue",
"&	c gainsboro",
"*	c gray",
"=	c peru",
"-	c orange",
";	c DeepPink",
":	c DodgerBlue",
">	c yellow",
"                       .                        ",
"                      .X.                       ",
"                     .XXX.                      ",
"                    .XXXXX.                     ",
"                   .XXXXXXX.                    ",
"                  .XXXXXXXXX.                   ",
"                 .XXXXXXXXXXX.                  ",
"                .XXXXXXXXXXXXX.                 ",
"               .XXXXXXXXXXXXXXX.                ",
"              .XXXXXXXXXXXXXXXXX.               ",
"             .XXXXXXXXXXXXXXXXXXX.              ",
"            .XXXXXXXXXXXXXXXXXXXXX.             ",
"           .X....XXX....XX...X...XX.            ",
"          .XXX.XX.X..XX..XX.XXX.XXXX.           ",
"         .XXXX.XX.X.XXXX.XX..X..XXXXX.          ",
"        .XXXXX...XX.XXXX.XXX.X.XXXXXXX.         ",
"       .XXXXXX.XXXX.XXXX.XXX.X.XX..XXXX.        ",
"      ...XXXXX.XXXX..XX..XXXX.XX.oo.XXXX.       ",
"     .ooo.XXX...XXXX....XXXXX.X.ooo..XXXX.      ",
"    .oooo.X..ooooo.XX..o.XXXooooooooo...oo.     ",
"   .oooOoo.oooooooo..oooo.X.ooooooOoooooooo.    ",
"  .ooooooooooooooooooOooOo.oOOoo+++++ooooooo.   ",
" .ooooooOOoooooooooooOOOoooooOoo++@+@++oooooo.  ",
".ooooooooooooooooo##ooooooooooo++++++++ooooooo. ",
" ................####..........@++@@@@++........",
"  .$$$$$$$$$$$$$######$$$$$$$%$+++++@+@+$$$$$$. ",
"   .$$$$$$$$$$$##&&####$$$$$$%$$$+@@++++$$$$$.  ",
"    .$$$$$$$$$##&&&&####$$$$$$%$$+++%@$+$$$$.   ",
"     .$$$$$$$#*&&.&&O###$$$$$$$%$$===$$$$$$.    ",
"      .$$$$$$$O&&&&&O##$$$$$$$$%$$=-=$$$$$.     ",
"       .$$$$$$O&&&&&OOO$$$$$$%%%$$=-=$$$$.      ",
"        .$$$$$O&&&&&OOO$$$$$$%$$$$=-=$$$.       ",
"         .$$$$O&&.&&OO$$$$$$$%$$$$=-=$$.        ",
"          .$$$O&&.&&OO$$$$$$$$%$$$===$.         ",
"           .$$OOOOOOO$$$;$$$$$%$$$$$$.          ",
"            .$$$$$$$$$$$$$$$$$%$$$$$.           ",
"             .$$$$$$$:$$$$$$$$%$$$$.            ",
"              .$$$>$>$#$$$%%%%$$$$.             ",
"               .$$$;$$$$$$%$$$$$$.              ",
"                .$$$$:$$$$%%$$$$.               ",
"                 .$$:$$$$$%%$$$.                ",
"                  .$$$$$$$%%%$.                 ",
"                   .$$$$$$$%%.                  ",
"                    .$$$$$$%.                   ",
"                     .$$$$$.                    ",
"                      .$$$.                     ",
"                       .$.                      ",
"                        .                       "};
