/* XPM */
static char * app_neuronc_comps_xpm[] = {
/* 	*/
"48 48 8 1",
/**/
" 	s None	c None",
".	c black",
"X	c LightGoldenrodYellow",
"o	c OrangeRed",
"O	c white",
"+	c MediumBlue",
"@	c DarkGray",
"#	c goldenrod",
/**/
"                       .                        ",
"                      .X.                       ",
"                     .XXX.                      ",
"                    .XXXXX.                     ",
"                   .XXXXXXX.                    ",
"                  .XXXXXXXXX.                   ",
"                 .XXXXXXXXXXX.                  ",
"                .XXXXXXXXXXXXX.                 ",
"               .XXXXXXXXXXXXXXX.                ",
"              .XXXXXXXXXXXXXXXXX.               ",
"             .XXXoooXoooXXoooooXX.              ",
"            .XXXXXooXXoXXooXXXoXXX.             ",
"           .XXXXXXoXoXoXXoXXXXXXXXX.            ",
"          .XXXXXXXoXoXoXXoXXXXXXXXXX.           ",
"         .XXXXXXXXoXXooXXoXXXXXXXXXXX.          ",
"        .XXXXXXXXXoXXooXXooXXXoXXXXXXX.         ",
"       .XXXXXXXXXoooXXoXXXooooXXXXXXXXX.        ",
"      .XXXXXXOOOOOOOOOOOOOOOOOOXXXXXXXXX.       ",
"     .XXXXXX...................XXXXXXXXXX.      ",
"    .XXXXXXX.XXXXXXXXXXXXXXXXX..XXXXXXXXXX.     ",
"   .X+++XXXX............XXXXXX.@.XXXXXXXXXX.    ",
"  .X+++++XXX.XXXXXXXXXXXXXXXXX.@@.XXXXXX+XXX.   ",
" .XX+++++XXX...X...X...XXXXXXX.@@@.XXX+++++XX.  ",
".XXX+++++XXX.XXXXXXXXXXXXXXXXX.@@@@.XX+++++XXX. ",
" .XXX+++#XXX...XX.XXX.XX.XXX.X.......X++++++XXX.",
"  .XXXXXX#XX.XXXXXXXXXXXXXXXXXX@@@@@.@+++++XXX. ",
"   .XXXXXX#X...XX.XXX.XX.XXX.XXX@@@@.@+++++XX.  ",
"    .XXXXX#X.XXXXXXXXXXXXXXXXXXXXXXX.@XX+XXX.   ",
"     .XXXXX#...XX..XX.XX..XX.XXXXXXX.@XXXXX.    ",
"      .XXXXX.XXXXXXXXXXXXXXXXXXXXXXX.@XXXX.     ",
"       .XXXX.X.XX.XXX.XX..XX.XXXXXXX.@XXX.      ",
"        .XXX.XXXXXXXXXXXXXXXXXXXXXXX.@XX.       ",
"         .XX.........................@X.        ",
"          .XX@@@@@@@@@@@@@@@@@@@@@@@@@.         ",
"           .XXXX##XXXXXXXXXX+++XXXXXX.          ",
"            .XXXXX##+++XXX##+++XXXXX.           ",
"             .XXXXX+++++##XX+++XXXX.            ",
"              .XXXX+++++XXXXXXXXXX.             ",
"               .XXX+++++XXXXXXXXX.              ",
"                .XXX+++XXXXXXXXX.               ",
"                 .XXXXXXXXXXXXX.                ",
"                  .XXXXXXXXXXX.                 ",
"                   .XXXXXXXXX.                  ",
"                    .XXXXXXX.                   ",
"                     .XXXXX.                    ",
"                      .XXX.                     ",
"                       .X.                      ",
"                        .                       "};
