/* XPM */
static char * app_neuronc_mtext_xpm[] = {
/* 	*/
"48 48 6 1",
/**/
" 	s None	c None",
".	c black",
"X	c LightGoldenrodYellow",
"o	c OrangeRed",
"O	c white",
"+	c DarkGray",
/**/
"                       .                        ",
"                      .X.                       ",
"                     .XXX.                      ",
"                    .XXXXX.                     ",
"                   .XXXXXXX.                    ",
"                  .XXXXXXXXX.                   ",
"                 .XXXXXXXXXXX.                  ",
"                .XXXXXXXXXXXXX.                 ",
"               .XXXXXXXXXXXXXXX.                ",
"              .XXXXXXXXXXXXXXXXX.               ",
"             .XXXoooXoooXXoooooXX.              ",
"            .XXXXXooXXoXXooXXXoXXX.             ",
"           .XXXXXXoXoXoXXoXXXXXXXXX.            ",
"          .XXXXXXXoXoXoXXoXXXXXXXXXX.           ",
"         .XXXXXXXXoXXooXXoXXXXXXXXXXX.          ",
"        .XXXXXXXXXoXXooXXooXXXoXXXXXXX.         ",
"       .XXXXXXXXXoooXXoXXXooooXXXXXXXXX.        ",
"      .XXXXXXOOOOOOOOOOOOOOOOOOXXXXXXXXX.       ",
"     .XXXXXX...................XXXXXXXXXX.      ",
"    .XXXXXXX.XXXXXXXXXXXXXXXXX..XXXXXXXXXX.     ",
"   .XXXXXXXX............XXXXXX.+.XXXXXXXXXX.    ",
"  .XXXXXXXXX.XXXXXXXXXXXXXXXXX.++.XXXXXXXXXX.   ",
" .XXXXXXXXXX...X...X...XXXXXXX.+++.XXXXXXXXXX.  ",
".XXXXXXXXXXX.XXXXXXXXXXXXXXXXX.++++.XXXXXXXXXX. ",
" .XXXXXXXXXX...XX.XXX.XX.XXX.X.......XXXXXXXXXX.",
"  .XXXXXXXXX.XXXXXXXXXXXXXXXXXX+++++.+XXXXXXXX. ",
"   .XXXXXXXX...XX.XXX.XX.XXX.XXX++++.+XXXXXXX.  ",
"    .XXXXXXX.XXXXXXXXXXXXXXXXXXXXXXX.+XXXXXX.   ",
"     .XXXXXX...XX..XX.XX..XX.XXXXXXX.+XXXXX.    ",
"      .XXXXX.XXXXXXXXXXXXXXXXXXXXXXX.+XXXX.     ",
"       .XXXX.X.XX.XXX.XX..XX.XXXXXXX.+XXX.      ",
"        .XXX.XXXXXXXXXXXXXXXXXXXXXXX.+XX.       ",
"         .XX.........................+X.        ",
"          .XX+++++++++++++++++++++++++.         ",
"           .XXXXXXXXXXXXXXXXXXXXXXXXX.          ",
"            .XXXXXXXXXXXXXXXXXXXXXXX.           ",
"             .XXXXXXXXXoooooXXXXXXX.            ",
"              .XXXXXXXXXoXXoXXXXXX.             ",
"               .XXXXXXXXoXXXXXXXX.              ",
"                .XXXXoXXoXXXXXXX.               ",
"                 .XXXoXXooXXXXX.                ",
"                  .XXXXXXXXXXX.                 ",
"                   .XXXXXXXXX.                  ",
"                    .XXXXXXX.                   ",
"                     .XXXXX.                    ",
"                      .XXX.                     ",
"                       .X.                      ",
"                        .                       "};
