/* XPM */
static char * app_neuronc_pov_xpm[] = {
"48 48 9 1",
" 	s None	c None",
".	c black",
"X	c cyan",
"o	c OrangeRed",
"O	c LightGray",
"+	c MediumBlue",
"@	c DarkGray",
"#	c brown",
"$	c PaleGreen",
"                       .                        ",
"                      .X.                       ",
"                     .XXX.                      ",
"                    .XXXXX.                     ",
"                   .XXXXXXX.                    ",
"                  .XXXXXXXXX.                   ",
"                 .XXXXXXXXXXX.                  ",
"                .XXXXXXXXXXXXX.                 ",
"               .XXXXXXXXXXXXXXX.                ",
"              .XXXXXXXXXXXXXXXXX.               ",
"             .XXXoooXoooXXoooooXX.              ",
"            .XXXXXooXXoXXooXXXoXXX.             ",
"           .XXXXXXoXoXoXXoXXXXXXXXX.            ",
"          .XXXXXXXoXoXoXXoXXXXXXXXXX.           ",
"         .XXXXXXXXoXXooXXoXXXXXXXXXXX.          ",
"        .XXXXXXXXXoXXooXXooXXXoXXXXXXX.         ",
"       .XXXXXXXXXoooXXoXXXooooXXX..XXXX.        ",
"      ...XXXXXXXXXXXXXXXXXXXXXXX.OO.XXXX.       ",
"     .OOO.XXXX+++XXXXXX.........OOO..XXXX.      ",
"    .OOOO.X..+++++.XX..OOOOOOOOOOOOOO...OO.     ",
"   .OOO@OO.OO+++++OO.OOOO@@@OOOOOO@OOOOOOOO.    ",
"  .OOOOOOOOOO+++++OO@@OO@OOO@@OOOO@@OOOOOOOO.   ",
" .OOOOOO@@OOOO+++OOOO@@@OOOOO@OOOOO@@OOOOOOOO.  ",
".OOOOOOOOOOOOOOO#OOOOOOOOOOOOOOOOOOO@OOOOOOOOO. ",
" ................#..............................",
"  .$$$$$$$$$$$$$$#$$$$$$$$$$$$$$$$+++$$$$$$$$$. ",
"   .$$$$$$$$$$$ooo#$$oo$$oo$oo$$$+++++$$$$$$$.  ",
"    .$$$$$$$$$$o$$#$o$$o$o$$o$$$$+++++$$$$$$.   ",
"     .$$$$$$$$$o$$o#o$$o$$o$o$$$$#+++$$$$$$.    ",
"      .$$$$$$$$o$$o$#$$o$$oo$$$$#$$+$$$$$$.     ",
"       .$$$$$$$ooo$$#oo$$$$o$$$#$$$$$$$$$.      ",
"        .$$$$$$o$$$$$#$$$$$$$##$$$$$$$$$.       ",
"         .$$$$$oo$$$$#$$+$$$#$$$$$$$$$$.        ",
"          .$$$$$$$$$$$#++++#$$$$$$$$$$.         ",
"           .$$$$$$$$$+++++++$$$$$$$$$.          ",
"            .$$$$$$$$+++++++$$$$$$$$.           ",
"             .$$$$$$+++++++++$$$$$$.            ",
"              .$$$$$$+++++++$$$$$$.             ",
"               .$$$$$+++++++$$$$$.              ",
"                .$$$$$+++++$$$$$.               ",
"                 .$$$$$$+$$$$$$.                ",
"                  .$$$$$$$$$$$.                 ",
"                   .$$$$$$$$$.                  ",
"                    .$$$$$$$.                   ",
"                     .$$$$$.                    ",
"                      .$$$.                     ",
"                       .$.                      ",
"                        .                       "};
