/* XPM */
static char * app_neuronc_dcomp_xpm[] = {
/*@F»Ï@+*/
"48 48 7 1",
/*–F8F@F»Ï@+*/
" 	s None	c None",
".	c black",
"X	c LightSalmon",
"o	c OrangeRed",
"O	c MediumBlue",
"+	c DeepSkyBlue",
"@	c gold",
/*8FPF–F8F@F»Ï@+*/
"                       .                        ",
"                      .X.                       ",
"                     .XXX.                      ",
"                    .XXXXX.                     ",
"                   .XXXXXXX.                    ",
"                  .XXXXXXXXX.                   ",
"                 .XXXXXXXXXXX.                  ",
"                .XXXXXXXXXXXXX.                 ",
"               .XXXXXXXXXXXXXXX.                ",
"              .XXXXXXXXXXXXXXXXX.               ",
"             .XXXoooXoooXXooooXXX.              ",
"            .XXXXXooXXoXXooXXXoXXX.             ",
"           .XXXXXXoXoXoXXoXXXXXXXXX.            ",
"          .XXXXXXXoXoXoXXoXXXXXXXXXX.           ",
"         .XXXXXXXXoXXooXXoXXXXXXXXXXX.          ",
"        .XXXXXXXXXoXXooXXooXXXoXXXXXXX.         ",
"       .XXXXXXXXXoooXXoXXXooooXXXXXXXXX.        ",
"      .XXXXXXXXXXXXXXXXXXXXXXXXXXXXXXXXX.       ",
"     .XXXXXXXXXXXXXXXXXXXXXXXXXXXXXXXXXXX.      ",
"    .XXXXXXXXXXXXXXXXXXXXXXXOOOXXXXXXXXXXX.     ",
"   .XXXXXXXXXXXXXXXXXXOXXXXX+OOXXXXXXXOXXXX.    ",
"  .XXXXXXXXXXOXXXXXXXOOOXXXXOOOXXXXXXOOOXXXX.   ",
" .XXXXXXXXXXOOOXXXXXX@OXXXXXXX@XXXXXX@OXXXXXX.  ",
".XXXXXXXXXXXXO@XXXXXX@XXXXXXXX@XXXXX@XXXXXXXXX. ",
" .XXXXXXXXXXXXX@XXXX@XXXXXXXXXX@XXXX@XXXXXXXXXX.",
"  .XXXXXXXXXXXXX@XXX@XXXXXXXXXX@XXX@XXXXXXXXXX. ",
"   .XXXXXXXXXXXXX@O@XXXXXXXXXXXXOOO@XXXXXXXXX.  ",
"    .XXXXXXXXXXXXOOOXXXXXXXXXXXOOOOOXXXXXXXX.   ",
"     .XXXXXXXXXXO+OOOXXXXXXXXXXO++OOXXXXXXX.    ",
"      .XXXXXXXXXXOO@XXXXXXXXXXXOOOOOXXXXXX.     ",
"       .XXXXXXXXXXOX@XXXXXXXXXX@OOOXXXXXX.      ",
"        .XXXXXXXXXXXX@XXXXXXX@@XXXXXXXXX.       ",
"         .XXXXXXXXXXX@XXOXX@@@XXXXXXXXX.        ",
"          .XXXXXXXXXXX@OOOO@XXXXXXXXXX.         ",
"           .XXXXXXXXXOOOOOOOXXXXXXXXX.          ",
"            .XXXXXXXXO+OOOOOXXXXXXXX.           ",
"             .XXXXXXOO++OOOOOXXXXXX.            ",
"              .XXXXXXO+OOOOOXXXXXX.             ",
"               .XXXXXOOOOOOOXXXXX.              ",
"                .XXXXXOOOOOXXXXX.               ",
"                 .XXXXXXOXXXXXX.                ",
"                  .XXXXXXXXXXX.                 ",
"                   .XXXXXXXXX.                  ",
"                    .XXXXXXX.                   ",
"                     .XXXXX.                    ",
"                      .XXX.                     ",
"                       .X.                      ",
"                        .                       "};
