/* XPM */
static char * baby_xpm[] = {
"48 48 8 1 0 0",
" 	s None	c None",
".	c gainsboro",
"X	c sky blue",
"o	c blue",
"O	c white",
"+	c black",
"@	c OrangeRed",
"#	c red",
"                                                ",
"                       ......                   ",
"                  ...................           ",
"               ........................         ",
"              ...........................       ",
"             ..............................     ",
"            ...............................     ",
"           ...........XXXXXXXXXXXX.........     ",
"           ..........XXXXXXXXXXXXXX.........    ",
"          ........XXXXXXXXXXXXXXXXXXX.......    ",
"          .......XXXXXXXXXXXXXXXXXXX........    ",
"          ......XXXXXXXXoooooXXXXXXXXXX......   ",
"         ......XXXXXXXooooooooXXXXXXXXX.......  ",
"         .....XXXXXXXooooooooooooXXXXXX.......  ",
"        .....XXXXXXXXoooooooooooooXXXXXXX.....  ",
"       ......XXXXXXXoooooOOOOoooooXXXXXXX.....  ",
"      ......XXXXXXXooooOOOOOOooooooXXXXX......  ",
"    .......XXXXXXXooooOOOOOOOOOooooXXXXX......  ",
"   ......XXXXXXXooooooOOOOOOOOOOooooXXXX.....   ",
"  ......XXXXXXXooooooOOOOOOOOOOOoooooXXXX....   ",
"  ....XXXXXooooooooooOOO++OOO++OOooooXXXX...    ",
" ....XXXXXoooooooooooOOO++OOO++OOooooXXXX...    ",
" ....XXXXoooooOOOOoooOOOOOOOOOOOOooooXXXX..     ",
"....XXXXoooooOOOOOOOoOOOO@OOO@OOOooooXXX...     ",
"....XXXXooooOOOOOOOOOOOOOO@##OOOOoooXXXX...     ",
"....XXXXoooOOOOOOOOOOOOOOOOOOOOOooooXXX....     ",
"....XXXXoooOOOO+OOOOOOOOOOOOOOOooooXXX......    ",
"....XXXXoooOOO+OOOOOOOOOOOOOOooooooXXX......    ",
".....XXXooooOO+OOOOOOOOOOOOOOoooooXXXXX.....    ",
".....XXXooooooOOOOOOOOOOOOOOOOooooXXXXXX.....   ",
".....XXXooooooOOOOOOOOOOOOOOOOoooooXXXXXX....   ",
"....XXXoooooooOOOOOOOOOOOOOOOOoooooXXXXXX....   ",
"...XXXooooooooOOOOOOOOOOOOOOOOOOooooXXXXX....   ",
"..XXXooooOooooOOOOOOOOOOOOooOOOOOoooXXXXX....   ",
"..XXXoooOOOoooOOOOOOOOOOOOooOOOOOoooXXXX.....   ",
"..XXXoooOOOooOOOOOOOOOOOOooooOOOooooXXX......   ",
"..XXXoooOOOOOOOOOOOOOOOOoooooooooooXXXX.....    ",
".XXXXXooOOOOOOOOOoooooooooXXXoooooXXXX......    ",
".XXXXXXooOOOOOOoooooooXXXXXXXXXXXXXXX......     ",
"..XXXXXoooooooooXXXXXXXXXXXXXXXXXXXX......      ",
".....XXXXoooooXXXXXXXXXXX......XXXX......       ",
"......XXXXXXXXXXXXXXXXXX................        ",
".......XXXXXXXXXXXXX...................         ",
" ...................................            ",
"  ............................O                 ",
"   .....................                        ",
"      ..............                            ",
"                                                "};
