/* XPM */
static char * dismount_xpm[] = {
/* width height num_colors chars_per_pixel */
"60 42 4 1",
/* colors */
" 	s None	c None",
".	c #c36100",
"X	c black",
"o	c #0000d3",
/* pixels */
"                                                            ",
"             .                                              ",
"          . ..                                              ",
"          .....                                             ",
"         .......                                            ",
"         ........                                           ",
"        ..........            XXXXXX                        ",
"      ...XX.........          XXXXXX                        ",
"     ................      XXXXXXXXXXXX                     ",
"    .................         oooooo                        ",
"   ..................oo       oooooo                        ",
"  ..................oooo       oooo      ......             ",
"  ....X....  .......oooo       oooo   ...........           ",
"  .XX...       .....ooooo.......ooo................         ",
"   ...          .....oooooo.....oooo...............         ",
"                  ....ooooooooooooooo...............        ",
"                  ......ooooooooooooo................       ",
"                   ........oooooooooo................       ",
"                   .............ooooo.................      ",
"                   .............ooooo.................      ",
"                   .............ooooo.................      ",
"                   .............ooooo.............. ..      ",
"                   .............ooooo........ ..... ...     ",
"                   .............ooooo......    .... ...     ",
"                   .............ooooo....      .... ...     ",
"                   .............ooooo...       .... ...     ",
"                   ....   .....oooooo..        .... ....    ",
"                   ...         ooooo           .... ....    ",
"                    ..         oooo            ....  ...    ",
"                    ...        ooo             ....  ...    ",
"                    ...        ooo             ....  ...    ",
"                    ...        ooo             ....  ...    ",
"                    ...        ooo             ....         ",
"                    ...        ooo            ....          ",
"                     ..        oooo           ....          ",
"                     ...        ooo          ...            ",
"                     ...        ooo          ...            ",
"                     ...        ooo          ..             ",
"                     ....       ooo          ..             ",
"                     ....    oooooo         ..              ",
"                      ...   ooooooo        ...              ",
"                                                            "};
