/* XPM */
static char * dos_xpm[] = {
"32 32 5 1",
" 	s none	c none",
".	c black",
"X	c white",
"o	c khaki",
"O	c OrangeRed",
"                                ",
"                                ",
"                                ",
"                                ",
"                                ",
"                  .......       ",
"                 .XXXXXXX.      ",
"                .XXXXXXXXX.     ",
"  ...........................   ",
" .ooooooooooooooooooooooooooo.  ",
" .ooooooooooooooooooooooooooo.. ",
" .ooooooooooooooooooooooooooo.. ",
" .ooooooooooooooooooooooooooo.. ",
" .ooooooooooooooooooooooooooo.. ",
" .ooooooooooooooooooooooooooo.. ",
" .oooooOOOOoooOOOoooOOOoooooo.. ",
" .ooooooOooOoOoooOoOoooOooooo.. ",
" .ooooooOooOoOoooOoOooooooooo.. ",
" .ooooooOooOoOoooOoOooooooooo.. ",
" .ooooooOooOoOoooOooOOOoooooo.. ",
" .ooooooOooOoOoooOoooooOooooo.. ",
" .ooooooOooOoOoooOoooooOooooo.. ",
" .ooooooOooOoOoooOoOoooOooooo.. ",
" .oooooOOOOoooOOOoooOOOoooooo.. ",
" .ooooooooooooooooooooooooooo.. ",
" .ooooooooooooooooooooooooooo.. ",
" .ooooooooooooooooooooooooooo.. ",
" .ooooooooooooooooooooooooooo.. ",
" .ooooooooooooooooooooooooooo.. ",
" .............................. ",
"  ............................. ",
"                                "};
