/* XPM */
static char * moon_xpm[] = {
"40 40 4 1",
" 	c black",
".	c white",
"X	c DarkSlateGray",
"o	c LightGray",
"                                        ",
"                                        ",
"                                        ",
"                                        ",
"                                        ",
"                                        ",
"                    .......             ",
"                 .............          ",
"                ...............         ",
"              ............. .....       ",
"             ..XXX....           o      ",
"            ...XXX...             o     ",
"            .......                     ",
"           .......                      ",
"          .......                       ",
"          .......                       ",
"          ......                        ",
"         ......                         ",
"         ......                         ",
"         ......                         ",
"         ......                         ",
"         ......                         ",
"         .X...                          ",
"         ..X...                         ",
"          .XX..                         ",
"          ..XXX                         ",
"          ...XX                         ",
"           ....                         ",
"            ....                        ",
"            .....                       ",
"             ....                       ",
"              ....                      ",
"                ...                     ",
"                 ....                   ",
"                    ..                  ",
"                                        ",
"                                        ",
"                                        ",
"                                        ",
"                                        "};
