/* XPM */
static char * neuron_flag_xpm[] = {
"50 50 6 1",
" 	s None	c None",
".	c brown",
"X	c blue",
"o	c red",
"O	c yellow",
"+	c OrangeRed",
"                                                  ",
"                                                  ",
"                 ..XXXX          XX               ",
"                 ..XXXXXXXXXXXXXXXXX              ",
"                 ..XXXXXXXXXXXXXXXXX              ",
"                 ..XXXXXXXXXXXXXXXXX              ",
"                 ..ooooooXXXXXXXooX               ",
"                 ..oooooooooooooooo               ",
"                 ..oooooooooooooooo               ",
"                 ..oooooooooooooooo               ",
"                 ..OOOOOOOoooooooOO               ",
"                 .OOOOOOOOOOOOOOOOO               ",
"                 .OOOOOOOOOOOOOOOOO               ",
"                 .OOOOOOOOOOOOOOOOO               ",
"                 .     OOOOOOOOOOOO               ",
"                 .                                ",
"                 .                                ",
"                 .                                ",
"                 .                                ",
"                 .                                ",
"                 .                                ",
"                 .                                ",
"                                                  ",
"       ++++++++++                ++++++++         ",
"                ++          ++++++                ",
"                  ++     +++                      ",
"                    ++  ++                        ",
"                     ++ +                         ",
"                      +++                         ",
"                       ++                         ",
"                     ++++++                       ",
"                   ++++++++++                     ",
"                  ++++++++++++                    ",
"                 ++++++++++++++                   ",
"                 +++++++++++++++                  ",
"                ++++++++++++++++                  ",
"                ++++++++++++++++                  ",
"                ++++++++++++++++                  ",
"                ++++++++++++++++                  ",
"                 +++++++++++++++                  ",
"                 ++++++++++++++                   ",
"                  ++++++++++++                    ",
"                   +++++++++++                    ",
"                    ++++++++                      ",
"                      ++++                        ",
"                                                  ",
"                                                  ",
"                                                  ",
"                                                  ",
"                                                  "};
