/* XPM */
static char * neuronc_out_xpm[] = {
"32 32 9 1",
" 	s None	c None",
".	c black",
"X	c lemon chiffon",
"o	c red",
"O	c tan",
"+	c gray50",
"@	c MediumBlue",
"#	c DeepPink",
"$	c ForestGreen",
"    ..................          ",
"    .XXXXXXXXXXXXXXXX..         ",
"    .XXooXXXooXXXoooX.O.        ",
"    .XXXooXXoXXXoXXoo.OO.       ",
"    .XXXooXXoXXXoXXXX.OOO.      ",
"    .XXXoXoXoXXXoXXXX.OOOO.     ",
"    .XXXoXoXoXXXoXXXX.OOOOO.    ",
"    .XXXoXXooXXXoXXXX.......+   ",
"    .XXXoXXooXXXoXXooXOOOOO.+   ",
"    .XXooXXXooXXXoooXXOOOOO.+   ",
"    .XXXXXXXXXXXXXXXXXXXXXX.+   ",
"    .XXXXXXXXXXXXXXXXXXXXXX.+   ",
"    .XX@XXXXXXXXXXXXXXXXXXX.+   ",
"    .XX@XXXXXXXXXX#XXXXXXXX.+   ",
"    .XX@X#XXXXXXXX###XXXXXX.+   ",
"    .XX@XX#XX#####XXX##XXXX.+   ",
"    .XX@XXX##XXXXXXXXXX#XXX.+   ",
"    .XX@XXXXXXXXXXX$XXXXXXX.+   ",
"    .XX@XXXXXX$XXX$X$XXXXXX.+   ",
"    .XX@XXXXX$X$XX$X$$$$XXX.+   ",
"    .XX@XXXX$XX$X$XXXXXXXXX.+   ",
"    .XX@XXX$XXXX$XXXXXXXXXX.+   ",
"    .XX@XXX$XXXXXXXXXXXXXXX.+   ",
"    .XX@XX$XXXXXXXXXXXXXXXX.+   ",
"    .XX@X$XXXXXXXXXXXXXXXXX.+   ",
"    .XX@XXXXXXXXXXXXXXXXXXX.+   ",
"    .XX@XXXXXXXXXXXXXXXXXXX.+   ",
"    .XX@@@@@@@@@@@@@@@@@@XX.+   ",
"    .XXXXXXXXXXXXXXXXXXXXXX.+   ",
"    .XXXXXXXXXXXXXXXXXXXXXX.+   ",
"    ........................+   ",
"     ++++++++++++++++++++++++   "};
