/* XPM */
static char * neuronc_xpm[] = {
/**/
"32 32 8 1",
/**/
" 	s None	c None",
".	c black",
"X	c LightGreen",
"o	c red",
"O	c DarkGray",
"+	c MediumBlue",
"@	c DeepSkyBlue",
"#	c DarkOrange",
/*À	Øì@ronc.xpm*/
"    ..................          ",
"    .XXXXXXXXXXXXXXXX..         ",
"    .XXooXXXooXXXoooX.O.        ",
"    .XXXooXXoXXXoXXoX.OO.       ",
"    .XXXooXXoXXXoXXXX.OOO.      ",
"    .XXXoXoXoXXXoXXXX.OOOO.     ",
"    .XXXoXoXoXXXoXXXX.OOOOO.    ",
"    .XXXoXXooXXXoXXXX.......O   ",
"    .XXXoXXooXXXoXXoXXOOOOO.O   ",
"    .XXooXXXooXXXoooXXOOOOO.O   ",
"    .XXXXXXXXXXXXXXXXXXXXXX.O   ",
"    .XXX+XXXXXXXXXXXXXXXXXX.O   ",
"    .XX+++XXXXXXXXXXXXXXXXX.O   ",
"    .X+@+++XXXXXXXXXXXXXXXX.O   ",
"    .XX+++XXXXXXXXXXXXX+XXX.O   ",
"    .XXX+#XXXXXXXXXXXX+++XX.O   ",
"    .XXXX#XXXXXXXXXXX+@+++X.O   ",
"    .XXXXX#XXXXXXXXXXX+++XX.O   ",
"    .XXXXX#XXXXXXXXXXX#+XXX.O   ",
"    .XXXXXX#XXXXXXXX##XXXXX.O   ",
"    .XXXXXX#XXXXXXX#XXXXXXX.O   ",
"    .XXXXXXX#XXXX##XXXXXXXX.O   ",
"    .XXXXXXX#+++#XXXXXXXXXX.O   ",
"    .XXXXXXX+++++XXXXXXXXXX.O   ",
"    .XXXXXX+@@++++XXXXXXXXX.O   ",
"    .XXXXXX+@@++++XXXXXXXXX.O   ",
"    .XXXXXX+++++++XXXXXXXXX.O   ",
"    .XXXXXXX+++++XXXXXXXXXX.O   ",
"    .XXXXXXXX+++XXXXXXXXXXX.O   ",
"    .XXXXXXXXXXXXXXXXXXXXXX.O   ",
"    ........................O   ",
"     OOOOOOOOOOOOOOOOOOOOOOOO   "};
