/* XPM */
static char * neuron_fr_xpm[] = {
"50 50 8 1",
" 	s None	c None",
".	c black",
"X	c LightPink",
"o	c tan",
"O	c burlywood",
"+	c MediumBlue",
"@	c gray50",
"#	c OrangeRed",
"                                                  ",
"       ...........................                ",
"       .XXXXXXXXXXXXXXXXXXXXXXXXX...              ",
"       .XXXXXXXXXXXXXXXXXXXXXXXXX.oo.             ",
"       .XXXXXXXXXXXXXXXXXXXXXXXXX.ooO.            ",
"       .XXXXXXXXXXXXXXXXXXXXXXXXX.oooo.           ",
"       .XXXXXXXXXXXX+++++++++XXXX.ooooo.          ",
"       .XXXXXXXXXXXXX++XXXX++XXXX.oooooO.         ",
"       .XXXXXXXXXXXXX++XXXXX+XXXX.ooooooo.        ",
"       .XXXXXXXXXXXXX++XXXXXXXXXX.oooooooo.       ",
"       .XXXXXXXXXXXXX++XXXXXXXXXX.oooooooo.@      ",
"       .XXXXXXXXXXXXX++XXXX+XXXXX..........@@     ",
"       .XXXXXXXXXXXXX+++++++XXXXX..........@@     ",
"       .XXXXXXXXXXXXX++XXXX+XXXXXXoooooooo.@@     ",
"       .XXXXXXXXXXXXX++XXXXXXXXXXXoooooooo.@@     ",
"       .XXXXXXXXXXXXX++XXXXXXXXXXXoooooooo.@@     ",
"       .XXXXXXXXXXXXX++XXXXXXXXXXXXXXXXXXX.@@     ",
"       .XXXXXXXXXXXXX++XXXXXXXXXXXXXXXXXXX.@@     ",
"       .XXXXXXXXXXXX++++XXXXXXXXXXXXXXXXXX.@@     ",
"       .XXXXXXXXXXXXXXXXXXXXXXXXXXXXXXXXXX.@@     ",
"       .XXXXXXXXXXXXXXXXXXXXXXXXXXXXXXXXXX.@@     ",
"       .X########XXXXXXXXXXXXXXXX########X.@@     ",
"       .XXXXXXXX##XXXXXXXXXX######XXXXXXXX.@@     ",
"       .XXXXXXXXXX##XXXXX###XXXXXXXXXXXXXX.@@     ",
"       .XXXXXXXXXXXX##XX##XXXXXXXXXXXXXXXX.@@     ",
"       .XXXXXXXXXXXXX##X#XXXXXXXXXXXXXXXXX.@@     ",
"       .XXXXXXXXXXXXXX###XXXXXXXXXXXXXXXXX.@@     ",
"       .XXXXXXXXXXXXXXX##XXXXXXXXXXXXXXXXX.@@     ",
"       .XXXXXXXXXXXXX######XXXXXXXXXXXXXXX.@@     ",
"       .XXXXXXXXXXXX########XXXXXXXXXXXXXX.@@     ",
"       .XXXXXXXXXXX###########XXXXXXXXXXXX.@@     ",
"       .XXXXXXXXXX############XXXXXXXXXXXX.@@     ",
"       .XXXXXXXXX##############XXXXXXXXXXX.@@     ",
"       .XXXXXXXXX##############XXXXXXXXXXX.@@     ",
"       .XXXXXXXX################XXXXXXXXXX.@@     ",
"       .XXXXXXXX################XXXXXXXXXX.@@     ",
"       .XXXXXXXX################XXXXXXXXXX.@@     ",
"       .XXXXXXXXX###############XXXXXXXXXX.@@     ",
"       .XXXXXXXXX###############XXXXXXXXXX.@@     ",
"       .XXXXXXXXXX#############XXXXXXXXXXX.@@     ",
"       .XXXXXXXXXXX###########XXXXXXXXXXXX.@@     ",
"       .XXXXXXXXXXXX########XXXXXXXXXXXXXX.@@     ",
"       .XXXXXXXXXXXXXX####XXXXXXXXXXXXXXXX.@@     ",
"       .XXXXXXXXXXXXXXXXXXXXXXXXXXXXXXXXXX.@@     ",
"       .XXXXXXXXXXXXXXXXXXXXXXXXXXXXXXXXXX.@@     ",
"       .XXXXXXXXXXXXXXXXXXXXXXXXXXXXXXXXXX.@@     ",
"       .XXXXXXXXXXXXXXXXXXXXXXXXXXXXXXXXXX.@@     ",
"       ....................................@@     ",
"        @@@@@@@@@@@@@@@@@@@@@@@@@@@@@@@@@@@@@     ",
"        @@@@@@@@@@@@@@@@@@@@@@@@@@@@@@@@@@@@@     "};
