/* XPM */
static char * neuron_G_xpm[] = {
"50 50 3 1",
" 	s None	c None",
".	c ForestGreen",
"X	c OrangeRed",
"                                                  ",
"                                                  ",
"                                                  ",
"                                                  ",
"                                                  ",
"                                                  ",
"                      ....  .                     ",
"                    ..    ...                     ",
"                   ..      ..                     ",
"                   ..       .                     ",
"                  ..                              ",
"                  ..                              ",
"                  ..      ....                    ",
"                  ..       ..                     ",
"                  ..       ..                     ",
"                   ..      ..                     ",
"                   ..      ..                     ",
"                    ...  ...                      ",
"                      ....                        ",
"                                                  ",
"                                                  ",
"         XXXXXXXX                XXXXXXXX         ",
"                XX          XXXXXX                ",
"                  XX     XXX                      ",
"                    XX  XX                        ",
"                     XX X                         ",
"                      XXX                         ",
"                       XX                         ",
"                     XXXXXX                       ",
"                    XXXXXXXX                      ",
"                   XXXXXXXXXXX                    ",
"                  XXXXXXXXXXXX                    ",
"                 XXXXXXXXXXXXXX                   ",
"                 XXXXXXXXXXXXXX                   ",
"                XXXXXXXXXXXXXXXX                  ",
"                XXXXXXXXXXXXXXXX                  ",
"                XXXXXXXXXXXXXXXX                  ",
"                 XXXXXXXXXXXXXXX                  ",
"                 XXXXXXXXXXXXXXX                  ",
"                  XXXXXXXXXXXXX                   ",
"                   XXXXXXXXXXX                    ",
"                    XXXXXXXX                      ",
"                      XXXX                        ",
"                                                  ",
"                                                  ",
"                                                  ",
"                                                  ",
"                                                  ",
"                                                  ",
"                                                  "};
