/* XPM */
static char * neuron_ps_xpm[] = {
/* width height num_colors chars_per_pixel */
"55 35 3 1",
/* colors */
" 	s None	c None",
".	c red",
"X	c black",
/* pixels */
"                                                       ",
"                                                       ",
"                                  ..                   ",
"               .              ....                     ",
"               ..            ...                       ",
"   ....         ...         ..            ......       ",
"       .....       ..      ..       .......            ",
"            ...     ..     .    .....                  ",
"             ...     .    .    ...                     ",
"                ..   .   ..  ..                        ",
"                 ..  .  .   ..                         ",
"                  .   . .  ..   XXXXX      XX X        ",
"                   .. ... ..     X   X    X  XX        ",
"                   ..   ...      X   X   XX   X        ",
"                   ..   ...      X   X    X            ",
"                    ... .        X   X     XX          ",
"                       ..        XXXX       XX         ",
"                        .        X           XX        ",
"                    ......       X       X    X        ",
"                  ..........     X       XX  XX        ",
"                  ...........   XXX      X XXX         ",
"                 .............                         ",
"                ..............                         ",
"                ..............                         ",
"                ...............                        ",
"                ...............                        ",
"                ...............                        ",
"                ..............                         ",
"                 .............                         ",
"                  ...........                          ",
"                  ..........                           ",
"                    ......                             ",
"                                                       ",
"                                                       ",
"                                                       "};
