/* XPM */
static char * neuron_xpm[] = {
/* width height num_colors chars_per_pixel */
"55 35 2 1",
/* colors */
" 	s None	c None",
".	c red",
/* pixels */
"                                                       ",
"                                                       ",
"                                                       ",
"                                  ....                 ",
"                               .....                   ",
"     .           ..           ..                       ",
"      .....        ..        ..         .........      ",
"           ....      ..     ..     .....               ",
"               ...    .     .   ....                   ",
"                 .     .   ..   ..                     ",
"                  ..   .  ..  ..                       ",
"                   ..  . ..  ..                        ",
"                    ..  ..  .                          ",
"                     ..  . ..                          ",
"                      .. ...                           ",
"                       ...                             ",
"                        ..                             ",
"                        ..                             ",
"                     ........                          ",
"                    .........                          ",
"                   ............                        ",
"                  ..............                       ",
"                  ..............                       ",
"                 ...............                       ",
"                 ...............                       ",
"                 ...............                       ",
"                  ..............                       ",
"                  .............                        ",
"                   ............                        ",
"                    .........                          ",
"                     .......                           ",
"                                                       ",
"                                                       ",
"                                                       ",
"                                                       "};
