/* XPM */
static char * neuron_area_xpm[] = {
"50 50 4 1",
" 	s None	c None",
".	c black",
"X	c LightSkyBlue",
"o	c OrangeRed",
"                                                  ",
"                                                  ",
"                        ..                        ",
"                      ..XX..                      ",
"                    ..XXXXXX..                    ",
"                  ..XXXXXXXXXX..                  ",
"                ..XXXXXXXXXXXXXX..                ",
"              ..XXXXXXXXXXXXXXXXX.                ",
"            ..XXXXXXXXXXXXXXXXXXX.                ",
"            .XXXXXXXXXXXXXXXXXXXXX.               ",
"             .XXXXXXXXXXXXXXXXXXXX.               ",
"             .XXXXXXXXXXXXXXXXXXXX.               ",
"             .XXXXXXXXXXXXXXXXXXXXX.              ",
"              .XXXXXXXXXXXXXXXXXXXX.              ",
"              .XXXXXXXXXXXXXXXXXXXX.              ",
"              .XXXXXXXXXXXXXXXXXXXXX.             ",
"               .XXXXXXXXXXXXXXXXXXX..             ",
"               .XXXXXXXXXXXXXXXX...               ",
"               ...XXXXXXXXXXXX..                  ",
"                  .....XXXX...                    ",
"                       ....                       ",
"                                                  ",
"                                                  ",
"       oooooooooo                oooooooo         ",
"                oo          oooooo                ",
"                  oo     ooo                      ",
"                    oo  oo                        ",
"                     oo o                         ",
"                      ooo                         ",
"                       oo                         ",
"                     oooooo                       ",
"                   oooooooooo                     ",
"                  oooooooooooo                    ",
"                 oooooooooooooo                   ",
"                 ooooooooooooooo                  ",
"                oooooooooooooooo                  ",
"                oooooooooooooooo                  ",
"                oooooooooooooooo                  ",
"                oooooooooooooooo                  ",
"                 ooooooooooooooo                  ",
"                 oooooooooooooo                   ",
"                  oooooooooooo                    ",
"                   ooooooooooo                    ",
"                    oooooooo                      ",
"                      oooo                        ",
"                                                  ",
"                                                  ",
"                                                  ",
"                                                  ",
"                                                  "};
