/* XPM */
static char * neuron_compress_xpm[] = {
/**/
"48 48 4 1",
/**/
" 	s None	c None",
".	c red",
"X	c black",
"o	c white",
/**/
"                                                ",
"                                                ",
"                                                ",
"                                                ",
"                                                ",
"                                                ",
"                                                ",
"                                                ",
"                                                ",
"                                                ",
"                 ....                    ....   ",
" .........          ..            ........      ",
"      ........        ...      ........         ",
"           ..........   ..   ....               ",
"              .........  . ....                 ",
"                    ...  ....                   ",
"                      .. ...                    ",
"    XXXX              .....                     ",
"    XXXX        XX .........  XX                ",
"      X    XX   XX........... XX                ",
"      X    XX   XX............XXX               ",
"      X    XX  XXX............XXX               ",
"    XXXXXXXXXXXXXX............XXXXXXX           ",
"    XXXXXXXXXXXXXX............XXXXXXXX          ",
"    XXXXXXXXXXXXXX............XXXXXXXX          ",
"    XXXXXXXXXXXXXX............XXX  XXX          ",
"      X    XXX XXX............XX   XXX          ",
"      X    XXX  XX............XX   XXX          ",
"      X    XXX  XX............XX   XXX          ",
"    XXXX   XXX    ............     XXX          ",
"    XXXX   XXX    ............     XXX          ",
"           XXX    ............     XXX          ",
"           XXX    ............     XXX          ",
"           XXX    ............     XXX          ",
"           XXX     ..........      XXX          ",
"           XXX      ........       XXX          ",
"           XXX        ....         XXX          ",
"           XXXX                   XXXX          ",
"           XXXXX                 XXXXX          ",
"            XXXXXXXXXXXXXXXXXXXXXXXXXo          ",
"            XXXXXXXXXXXXXXXXXXXXXXXXXo          ",
"             XXXXXXXXXXXXXXXXXXXXXXXo           ",
"                                                ",
"                                                ",
"                                                ",
"                                                ",
"                                                ",
"                                                "};
