/* XPM */
static char * neuron_dat_xpm[] = {
/* width height num_colors chars_per_pixel */
"50 35 3 1",
/* colors */
" 	s None	c None",
".	c red",
"X	c black",
/* pixels */
"                                                  ",
"                                                  ",
"                                                  ",
"                          ....                    ",
"        ..             ...                        ",
"         ....         .              .....        ",
"...        ..        ..         ................. ",
"   ...       .      ..     ......                 ",
"      ...     .     .    ...                      ",
"        ..    ..   ..   ..                        ",
"         ..   ..  ..  ...                         ",
"           ..  . ..  ..                           ",
"           ..  ...  ..                            ",
"             .  ..  .    XXXXXX      X    XXXXXXX ",
"             .   ...      X   XX     X    X  X  X ",
"             ..  ...      X    X    X X      X    ",
"               ...        X    X    X X      X    ",
"                ..        X    X   XX XX     X    ",
"                 .        X    X   XXXXX     X    ",
"             ........     X   XX   X   X     X    ",
"           ..........    XXXXXX   X     X    X    ",
"           ............                           ",
"         ...............                          ",
"         ...............                          ",
"         ................                         ",
"         ................                         ",
"         ................                         ",
"         ...............                          ",
"         ...............                          ",
"          .............                           ",
"           ............                           ",
"             ........                             ",
"             .......                              ",
"                                                  ",
"                                                  "};
