/* XPM */
static char * neuronc_group_xpm[] = {
/**/
"40 40 12 1",
/**/
" 	s None	c None",
".	c white",
"X	c DarkGray",
"o	c MediumSeaGreen",
"O	c black",
"+	c MediumBlue",
"@	c SkyBlue",
"#	c red",
"$	c MediumVioletRed",
"%	c DarkTurquoise",
"&	c OrangeRed",
"*	c firebrick",
/*Ÿ*/
"                                        ",
"                                        ",
"                                        ",
"                                        ",
"                                        ",
".......................................X",
".ooooooooooooooooooooooooooooooooooooooO",
".ooooooooo++oooooooooooooooooooooooooooO",
".oooooooo++++ooooooooooooo+++ooooooooooO",
".oooooooo+@++ooo......Xoo+++++oooooooooO",
".oooooooo++++ooo.oooooOoo+@@++oooooooooO",
".oooooooooo#oooo.oo$$oOoo+++++oooooooooO",
".ooooooooooo#ooo.ooo%oOoo+++++oooooooooO",
".ooooooooooo&ooo.ooo%oOooo+++ooooooooooO",
".oooooooooooo#ooXOOOOOOooo&&oooooooooooO",
".ooo......Xoo&ooooooooooo&ooo......XoooO",
".ooo.o*oooOoo&oooooooooo&oooo.oooooOoooO",
".ooo.o*oooOoo&oooooooooo&oooo.oooooOoooO",
".ooo.o**ooOooo&oooooooo&ooooo.oo+++OoooO",
".ooo.oooooOooo&oooooooo&ooooo.oooooOoooO",
".oooXOOOOOOoooo&ooooo&&ooooooXOOOOOOoooO",
".oooooooooooooo&oooo&ooooooooooooooooooO",
".oooooooooooooo&++++&ooooooooooooooooooO",
".oooooooooooooo++++++ooooooooooooooooooO",
".ooo......Xooo++@@++++ooooooo......XoooO",
".ooo.oooooOooo+@@@++++ooooooo.oooooOoooO",
".ooo.+++ooOooo++++++++ooooooo.oooooOoooO",
".ooo.oooooOooo++++++++ooooooo.o#oooOoooO",
".ooo.oooooOoooo++++++oooooooo.o#oooOoooO",
".oooXOOOOOOooooo++++oooooooooXOOOOOOoooO",
".ooooooooooooooooooooooooooooooooooooooO",
".ooooooooooooooooooooooooooooooooooooooO",
".ooooooooooooooooooooooooooooooooooooooO",
"XOOOOOOOOOOOOOOOOOOOOOOOOOOOOOOOOOOOOOOO",
"                                        ",
"                                        ",
"                                        ",
"                                        ",
"                                        ",
"                                        "};
