/* XPM */
static char * ps2ai_xpm[] = {
/**/
"80 32 6 1",
/**/
" 	s None	c None",
".	c black",
"X	c lemon chiffon",
"o	c tan",
"O	c gray50",
"+	c OrangeRed",
/**/
"    ..................                  ..................                      ",
"    .XXXXXXXXXXXXXXXX..                 .XXXXXXXXXXXXXXXX..                     ",
"    .XXXXXXXXXXXXXXXX.o.                .XXXXXXXXXXXXXXXX.o.                    ",
"    .XXXXXXXXXXXXXXXX.oo.               .XXXXXXXXXXXXXXXX.oo.                   ",
"    .XXXXXXXXXXXXXXXX.ooo.              .XXXXXXXXXXXXXXXX.ooo.                  ",
"    .XXXXXXXXXXXXXXXX.oooo.             .XXXXXXXXXXXXXXXX.oooo.                 ",
"    .XXXXXXXXXXXXXXXX.ooooo.            .XXXXXXXXXXXXXXXX.ooooo.                ",
"    .XXXXXXXXXXXXXXXX.......            .XXXXXXXXXXXXXXXX.......O               ",
"    .XXXXXXXXXXXXXXXXXooooo.            .XXXXXXXXXXXXXXXXXooooo.O               ",
"    .XXXXXXXXXXXXXXXXXooooo.            .XXXXXXXXXXXXXXXXXooooo.O               ",
"    .XXXXXXXXXXXXXXXXXXXXXX.            .XXXXXXXXXXXXXXXXXXXXXX.O               ",
"    .X+++++++++XXXX+++XX+XX.            .XXXXXXXX+XXXXXXXX++++X.O               ",
"    .XX++XXXX+++XX++XX+++XX.            .XXXXXX++++XXXXXXXX++XX.O               ",
"    .XX++XXXXX++X++XXXXX+XX.            .XXXXXX++++XXXXXXXX++XX.O               ",
"    .XX++XXXXX++X++XXXXXXXX.            .XXXXXX++X+XXXXXXXX++XX.O               ",
"    .XX++XXXXX++X+++XXXXXXX.      .     .XXXXX+++X++XXXXXXX++XX.O               ",
"    .XX++XXXX++XXX++++XXXXX.       .    .XXXXX+XXX++XXXXXXX++XX.O               ",
"    .XX+++++++XXXXX+++++XXX.        ..  .XXXX++XXX+++XXXXXX++XX.O               ",
"    .XX+++++++XXXXX+++++XXX.  ......... .XXXX++XXX+++XXXXXX++XX.O               ",
"    .XX++XXXXXXXXXXXX++++XX.         .  .XXXX+XXXXX++XXXXXX++XX.O               ",
"    .XX++XXXXXXXXXXXXX++++X.       ..   .XXXX++++++++XXXXXX++XX.O               ",
"    .XX++XXXXXXXXXXXXXXX++X.      .     .XXX++XXXXX+++XXXXX++XX.O               ",
"    .XX++XXXXXXXX+XXXXXX++X.            .XXX+XXXXXXX++XXXXX++XX.O               ",
"    .XX++XXXXXXXX++XXX+++XX.            .XX++XXXXXXX+++XXXX++XX.O               ",
"    .X++++XXXXXXX+X+++++XXX.            .X++++XXXXX+++++XX++++X.O               ",
"    .XXXXXXXXXXXXXXXXXXXXXX.            .XXXXXXXXXXXXXXXXXXXXXX.O               ",
"    .XXXXXXXXXXXXXXXXXXXXXX.            .XXXXXXXXXXXXXXXXXXXXXX.O               ",
"    .XXXXXXXXXXXXXXXXXXXXXX.            .XXXXXXXXXXXXXXXXXXXXXX.O               ",
"    .XXXXXXXXXXXXXXXXXXXXXX.            .XXXXXXXXXXXXXXXXXXXXXX.O               ",
"    .XXXXXXXXXXXXXXXXXXXXXX.            .XXXXXXXXXXXXXXXXXXXXXX.O               ",
"    ........................            ........................O               ",
"                                         OOOOOOOOOOOOOOOOOOOOOOOO               "};
