/* XPM */
static char * rider_xpm[] = {
/* width height num_colors chars_per_pixel */
"60 50 5 1",
/* colors */
" 	s None	c None",
".	c black",
"X	c #0000d3",
"o	c #c36100",
"O	c white",
/* pixels */
"                                                            ",
"                                                            ",
"                              ..  ..                        ",
"                              ......                        ",
"                           ............                     ",
"                           ............                     ",
"                              XXXXXX                        ",
"                               XXXXX                        ",
"              o                 XXX                         ",
"           o oo                 XXX                         ",
"           oooo                  XXX                        ",
"           oooo                 XXXXX                       ",
"          ooooooo               XXXXX                       ",
"         oooooooooo  XXX     XXXXXXXX                       ",
"        oo..oooooooo XXXXX   XXXOXXXX                       ",
"       ooo..oooooooooXXXXXX XXXXXXXXX                       ",
"      oooooooooooooooOOOXXXXXXXOXXXXX                       ",
"     oooooooooooooooooOOOXXXXXOOXXXXX                       ",
"   oooooooooooooooooooooOOOOOOOOXXXXX     oooooo            ",
"   oooo.oooo  oooooooooooOOOOOOOXXXXXX ooooooooooo          ",
"   ooo.oo      oooooooooooooooooXXXXXXooooooooooooo         ",
"   ...ooo       oooooooooooooooXXXXXXooooooooooooooo        ",
"   oooo          oooooooooooooXXXXXXXooooooooooooooo        ",
"                   ooooooooooXXXXXoooooooooooooooooooo      ",
"                    oooooooooXXXXooooooooooooooooooooo      ",
"                    oooooooooXXXXoooooooooooooooooooooo     ",
"                    oooooooooXXXXoooooooooooooooooooooo     ",
"                    oooooooooXXXXoooooooooooooooooooooo     ",
"                    oooooooooooXXXoooooooooooooooooo oo     ",
"                    ooooooooooooXXXooooooooooooooooo ooo    ",
"                    oooooooooooooXXXooooooooo  ooooo ooo    ",
"                    oooooooooooooXXXoooooooo    oooo ooo    ",
"                    oooooooooooooXXXoooooo      oooo ooo    ",
"                    oooo   oooooXXXoooo         oooo oooo   ",
"                    ooo          oo             oooo oooo   ",
"                     oo                         oooo  ooo   ",
"                     ooo                        oooo  ooo   ",
"                     ooo                        oooo  ooo   ",
"                     ooo                        ooo   ooo   ",
"                     ooo                        ooo         ",
"                     ooo                       oooo         ",
"                     ooo                       oooo         ",
"                     ooo                       ooo          ",
"                     oooo                    oooo           ",
"                     oooo                    ooo            ",
"                      oooo                   ooo            ",
"                      oooo                   oo             ",
"                       ooo                  ooo             ",
"                                                            ",
"                                                            "};
