/* XPM */
static char * snake_xpm[] = {
"40 32 5 1",
" 	s None	c None",
".	c black",
"X	c white",
"o	c MediumBlue",
"O	c red",
"                                        ",
"                                        ",
"  ....................................  ",
" ..XXXXXXXXXXXXXXXXXXXXXXXXXXXXXXXXXX.. ",
" .XXXXXXXXXXXXXXXXXXXXXXXXXXXXXXXXXXXX. ",
" .XXXXXXXXXXXXXXXXXXXXXXXXXXXXXXXXXXXX. ",
" .XXXXXXXXXXXXXXXXXXXXXXXXXXXXXXXXXXXX. ",
" .XXXXXXXXXXXXXXXXXXXXooooXXXXXXXXXXXX. ",
" .XXXXXXXXXXXXXXXXXXXooXXooXXXXXXXXXXX. ",
" .XXXOOOXXXXXXXXXXXXooXXXXXoXXXXXXXXXX. ",
" .XXXOXXXXXXXXoooXXXoXXXXXXoXXXXXXXXXX. ",
" .XXXOOOXXXXXXooooooXXXXXXXoXXXXXXXXXX. ",
" .XXXXXOXXXXXXoooXXXXXXXXXXooXXXXXXXXX. ",
" .XXXOOOXXXXXXXXXXXXXXXXXXXXoXXXXXXXXX. ",
" .XXXXXXXXXXXXXXXXXXXXXXXXXXoXXXXXXXXX. ",
" .XXXXXXXXXXXXXXXXXXXXXXXXXoXXXXXXXXXX. ",
" .XXXXXXXXXXXXXXXXXXXXXXXXXoXXXXXXXXXX. ",
" .XXXXXXXXXXXXXXXXXXXXXXXooXXXXXXXXXXX. ",
" .XXXXXXXXXXXXXXXXXXXXXXXoXXXXXXoXXXXX. ",
" .XXXXXXXXXXXXXXXXXXXXXXooXXXXXXoXXXXX. ",
" .XXXXXXXXXXXXXXXXXXXXXXoXXXXXXooXXXXX. ",
" .XXXXXXXXXXXXXXXXXXXXXXXoXXXXooXXXXXX. ",
" .XXXXXXXXXXXXXXXXXXXXXXXoooooXXXXXXXX. ",
" .XXXXXXXXXXXXXXXXXXXXXXXXXooXXXXXXXXX. ",
" .XXXXXXXXXXXXXXXXXXXXXXXXXXXXXXXXXXXX. ",
" .XXXXXXXXXXXXXXXXXXXXXXXXXXXXXXXXXXXX. ",
" .XXXXXXXXXXXXXXXXXXXXXXXXXXXXXXXXXXXX. ",
" ..XXXXXXXXXXXXXXXXXXXXXXXXXXXXXXXXXX.. ",
"  ....................................  ",
"                                        ",
"                                        ",
"                                        "};
