/* XPM */
static char * top_xpm[] = {
/* width height num_colors chars_per_pixel */
"45 50 3 1",
/* colors */
" 	s None	c None",
".	c #c36100",
"X	c #823000",
/* pixels */
"                                             ",
"                                             ",
"                                             ",
"                                             ",
"                    ....                     ",
"                    ....                     ",
"                    ....                     ",
"                    ....                     ",
"                    ....                     ",
"                    ....                     ",
"                    ....                     ",
"                    ....                     ",
"                    ....                     ",
"                    ....                     ",
"                    ....                     ",
"                    ....                     ",
"                    ....                     ",
"                XXXX....XXXX                 ",
"          XXXXXXXXXX....XXXXXXXXXX           ",
"        XXXXXXXXXXXX....XXXXXXXXXXXX         ",
"      XXXXXXXXXXXXXX....XXXXXXXXXXXXXX       ",
"     XXXXXXXXXXXXXXX....XXXXXXXXXXXXXXXX     ",
"    XXXXXXXXXXXXXXXX....XXXXXXXXXXXXXXXXX    ",
"    XXXXXXXXXXXXXXXX....XXXXXXXXXXXXXXXXX    ",
"    XXXXXXXXXXXXXXXXXXXXXXXXXXXXXXXXXXXXX    ",
"    XXXXXXXXXXXXXXXXXXXXXXXXXXXXXXXXXXXX     ",
"     XXXXXXXXXXXXXXXXXXXXXXXXXXXXXXXXXX      ",
"       XXXXXXXXXXXXXXXXXXXXXXXXXXXXXXX       ",
"         XXXXXXXXXXXXXXXXXXXXXXXXXX          ",
"             .XXXXXXXXXXXXXXXXX              ",
"               ..............                ",
"                 ...........                 ",
"                  .........                  ",
"                   .......                   ",
"                   .......                   ",
"                    .....                    ",
"                    .....                    ",
"                    .....                    ",
"                    ....                     ",
"                    ....                     ",
"                     ...                     ",
"                     ...                     ",
"                     ..                      ",
"                     ..                      ",
"                     ..                      ",
"                      .                      ",
"                                             ",
"                                             ",
"                                             ",
"                                             "};
