/* XPM */
static char * xfm_tga_xpm[] = {
/**/
"32 32 13 1",
/* ‡$*/
" 	s None	c None",
".	c black",
"X	c cyan",
"o	c tan",
"O	c grey",
"+	c slate grey",
"@	c sea green",
"#	c lime green",
"$	c red",
"%	c pale green",
"&	c gainsboro",
"*	c sienna",
"=	c orange",
/**/
"    ..................          ",
"    .XXXXXXXXXXXXXXXX..         ",
"    .XXXXXXXXXXXXXXXX.o.        ",
"    .XXXXXXXXXXXXXXXX.oo.       ",
"    .X...XX...XXXX.XX.ooo.      ",
"    .XX.XX.XXXXXXX.XX.oooo.     ",
"    .XX.XX.XX..XX.X.X.ooooo.    ",
"    .XX.XX.XXX.XX...X........   ",
"    .XX.XX.XXX.X.XXX.XXXXXX..   ",
"    .XX.XXX...XX.XXX.XXXXXX..   ",
"    .XXXXXXXXXXXXXXXXXXXXXX..   ",
"    .XXXXXXXXXXXXXXX..XXXXX..   ",
"    ...XXXXXXXXXXXX.O.XXXXX..   ",
"    .OO.XXXX.XXXXX..OO.XXXX..   ",
"    .OOO.XX.O.XXX.OOOOO.XXX..   ",
"    .OOO+..OOO.X.OOOOOO.X....   ",
"    .O+O++OOOOO.OOOO@@@#.OO..   ",
"    .O++O+OOOOO++O@@@#@@#OO..   ",
"    .++OOO+OOOOO+@@@@@#@#@O..   ",
"    .+OOOOOO+OOOO@#@@@@@@@@..   ",
"    .......$$$$O@@@@#@@#@@O..   ",
"    .%%%%%$&$$$.@@@@@@@@@@...   ",
"    .%%%%$&&&$$$%@@%@*@@@%%..   ",
"    .%%%$&&&&&$$$%@%*=*%@%%..   ",
"    .%%$+&&&&&+$$%%%*=*%%%%..   ",
"    .%%%+&&&&&+&$%%%*=*%%%%..   ",
"    .%%%+&&&&&+&+%%%*=*%%%%..   ",
"    .%%%+&&&&&++%%%%*=*%%%%..   ",
"    .%%%+++++++%%%%%***%%%%..   ",
"    .%%%%%%%%%%%%%%%%%%%%%%..   ",
"    .........................   ",
"     ........................   "};
